<svg width="152" height="29" viewBox="0 0 152 29" fill="none" xmlns="http://www.w3.org/2000/svg">
<path d="M128.859 22V7.50996H132.789V22H128.859ZM138.309 22V13.45C138.309 12.61 138.039 11.96 137.499 11.5C136.979 11.02 136.329 10.78 135.549 10.78C135.029 10.78 134.559 10.89 134.139 11.11C133.719 11.31 133.389 11.61 133.149 12.01C132.909 12.41 132.789 12.89 132.789 13.45L131.259 12.7C131.259 11.58 131.499 10.61 131.979 9.78996C132.479 8.96996 133.149 8.33996 133.989 7.89996C134.829 7.43996 135.779 7.20996 136.839 7.20996C137.839 7.20996 138.749 7.43996 139.569 7.89996C140.389 8.33996 141.039 8.96996 141.519 9.78996C141.999 10.59 142.239 11.56 142.239 12.7V22H138.309ZM147.759 22V13.45C147.759 12.61 147.489 11.96 146.949 11.5C146.429 11.02 145.779 10.78 144.999 10.78C144.499 10.78 144.029 10.89 143.589 11.11C143.169 11.31 142.839 11.61 142.599 12.01C142.359 12.41 142.239 12.89 142.239 13.45L139.989 12.91C140.069 11.75 140.379 10.75 140.919 9.90996C141.459 9.04996 142.169 8.38996 143.049 7.92996C143.929 7.44996 144.909 7.20996 145.989 7.20996C147.069 7.20996 148.039 7.43996 148.899 7.89996C149.759 8.33996 150.439 8.97996 150.939 9.81996C151.439 10.66 151.689 11.66 151.689 12.82V22H147.759Z" fill="white"/>
<path d="M118.589 22.3001C117.129 22.3001 115.809 21.9701 114.629 21.3101C113.469 20.6301 112.539 19.7201 111.839 18.5801C111.159 17.4201 110.819 16.1301 110.819 14.7101C110.819 13.2901 111.159 12.0201 111.839 10.9001C112.519 9.76005 113.449 8.86005 114.629 8.20005C115.809 7.52005 117.119 7.18005 118.559 7.18005C120.039 7.18005 121.359 7.52005 122.519 8.20005C123.699 8.86005 124.629 9.76005 125.309 10.9001C125.989 12.0201 126.329 13.2901 126.329 14.7101C126.329 16.1301 125.989 17.4201 125.309 18.5801C124.629 19.7201 123.699 20.6301 122.519 21.3101C121.359 21.9701 120.049 22.3001 118.589 22.3001ZM118.559 18.6401C119.299 18.6401 119.949 18.4801 120.509 18.1601C121.089 17.8201 121.529 17.3601 121.829 16.7801C122.149 16.1801 122.309 15.5001 122.309 14.7401C122.309 13.9801 122.149 13.3101 121.829 12.7301C121.509 12.1501 121.069 11.7001 120.509 11.3801C119.949 11.0401 119.299 10.8701 118.559 10.8701C117.839 10.8701 117.199 11.0401 116.639 11.3801C116.079 11.7001 115.639 12.1501 115.319 12.7301C114.999 13.3101 114.839 13.9801 114.839 14.7401C114.839 15.5001 114.999 16.1801 115.319 16.7801C115.639 17.3601 116.079 17.8201 116.639 18.1601C117.199 18.4801 117.839 18.6401 118.559 18.6401Z" fill="white"/>
<path d="M101.509 22.3001C100.049 22.3001 98.729 21.9701 97.549 21.3101C96.389 20.6301 95.459 19.7201 94.759 18.5801C94.079 17.4201 93.739 16.1301 93.739 14.7101C93.739 13.2901 94.079 12.0201 94.759 10.9001C95.439 9.76005 96.369 8.86005 97.549 8.20005C98.729 7.52005 100.039 7.18005 101.479 7.18005C102.959 7.18005 104.279 7.52005 105.439 8.20005C106.619 8.86005 107.549 9.76005 108.229 10.9001C108.909 12.0201 109.249 13.2901 109.249 14.7101C109.249 16.1301 108.909 17.4201 108.229 18.5801C107.549 19.7201 106.619 20.6301 105.439 21.3101C104.279 21.9701 102.969 22.3001 101.509 22.3001ZM101.479 18.6401C102.219 18.6401 102.869 18.4801 103.429 18.1601C104.009 17.8201 104.449 17.3601 104.749 16.7801C105.069 16.1801 105.229 15.5001 105.229 14.7401C105.229 13.9801 105.069 13.3101 104.749 12.7301C104.429 12.1501 103.989 11.7001 103.429 11.3801C102.869 11.0401 102.219 10.8701 101.479 10.8701C100.759 10.8701 100.119 11.0401 99.559 11.3801C98.999 11.7001 98.559 12.1501 98.239 12.7301C97.919 13.3101 97.759 13.9801 97.759 14.7401C97.759 15.5001 97.919 16.1801 98.239 16.7801C98.559 17.3601 98.999 17.8201 99.559 18.1601C100.119 18.4801 100.759 18.6401 101.479 18.6401Z" fill="white"/>
<path d="M78.8298 22V0.910034H82.9098V22H78.8298ZM81.8298 22V18.37H92.5698V22H81.8298Z" fill="white"/>
<path d="M72.2622 22.2999C71.5422 22.2999 70.9522 22.0599 70.4922 21.5799C70.0322 21.0999 69.8022 20.5099 69.8022 19.8099C69.8022 19.1099 70.0322 18.5199 70.4922 18.0399C70.9522 17.5599 71.5422 17.3199 72.2622 17.3199C72.9622 17.3199 73.5422 17.5599 74.0022 18.0399C74.4622 18.5199 74.6922 19.1099 74.6922 19.8099C74.6922 20.5099 74.4622 21.0999 74.0022 21.5799C73.5422 22.0599 72.9622 22.2999 72.2622 22.2999Z" fill="#B8A893"/>
<path d="M60.2618 22.3001C58.7418 22.3001 57.3918 21.9801 56.2118 21.3401C55.0318 20.6801 54.0918 19.7801 53.3918 18.6401C52.7118 17.5001 52.3718 16.2001 52.3718 14.7401C52.3718 13.3001 52.7018 12.0201 53.3618 10.9001C54.0418 9.76005 54.9618 8.86005 56.1218 8.20005C57.2818 7.52005 58.5718 7.18005 59.9918 7.18005C61.3918 7.18005 62.6218 7.50005 63.6818 8.14005C64.7618 8.76005 65.6018 9.62005 66.2018 10.7201C66.8218 11.8001 67.1318 13.0301 67.1318 14.4101C67.1318 14.6701 67.1118 14.9401 67.0718 15.2201C67.0518 15.4801 67.0018 15.7801 66.9218 16.1201L54.7418 16.1501V13.2101L65.0918 13.1801L63.5018 14.4101C63.4618 13.5501 63.3018 12.8301 63.0218 12.2501C62.7618 11.6701 62.3718 11.2301 61.8518 10.9301C61.3518 10.6101 60.7318 10.4501 59.9918 10.4501C59.2118 10.4501 58.5318 10.6301 57.9518 10.9901C57.3718 11.3301 56.9218 11.8201 56.6018 12.4601C56.3018 13.0801 56.1518 13.8201 56.1518 14.6801C56.1518 15.5601 56.3118 16.3301 56.6318 16.9901C56.9718 17.6301 57.4518 18.1301 58.0718 18.4901C58.6918 18.8301 59.4118 19.0001 60.2318 19.0001C60.9718 19.0001 61.6418 18.8801 62.2418 18.6401C62.8418 18.3801 63.3618 18.0001 63.8018 17.5001L66.1118 19.8101C65.4118 20.6301 64.5518 21.2501 63.5318 21.6701C62.5318 22.0901 61.4418 22.3001 60.2618 22.3001Z" fill="white"/>
<path d="M45.9197 22.0001V0.310059H49.8497V22.0001H45.9197Z" fill="white"/>
<path d="M35.0402 22.12L28.9802 7.51001H33.2402L37.2602 18.67H35.8202L39.9902 7.51001H44.2802L37.8302 22.09L35.0402 22.12ZM31.0202 28.06L35.4302 18.73L37.8302 22.09L35.1902 28.06H31.0202Z" fill="white"/>
<path d="M20.9501 22V1.47998H24.8801V22H20.9501ZM17.5601 10.96V7.50998H28.2701V10.96H17.5601Z" fill="white"/>
<path d="M8.28001 22.3C6.58001 22.3 5.12001 22.01 3.90001 21.43C2.70001 20.85 1.61 19.98 0.630005 18.82L3.33 16.12C3.95 16.94 4.67 17.58 5.49001 18.04C6.31 18.48 7.31001 18.7 8.49001 18.7C9.55001 18.7 10.39 18.49 11.01 18.07C11.65 17.65 11.97 17.07 11.97 16.33C11.97 15.69 11.79 15.17 11.43 14.77C11.07 14.37 10.59 14.03 9.99 13.75C9.41 13.47 8.76 13.22 8.04 13C7.34 12.76 6.63 12.49 5.91001 12.19C5.21 11.89 4.56 11.52 3.96 11.08C3.38 10.62 2.91 10.04 2.55 9.33996C2.19 8.61996 2.01 7.71996 2.01 6.63996C2.01 5.35996 2.32 4.26996 2.94 3.36996C3.56 2.46996 4.41 1.77996 5.49001 1.29996C6.57001 0.819956 7.79001 0.579956 9.15001 0.579956C10.59 0.579956 11.89 0.849956 13.05 1.38996C14.21 1.92996 15.16 2.62996 15.9 3.48996L13.2 6.18996C12.58 5.50996 11.94 5.00996 11.28 4.68996C10.64 4.36996 9.91001 4.20996 9.09 4.20996C8.15001 4.20996 7.41001 4.38996 6.87001 4.74996C6.33 5.10996 6.06001 5.62996 6.06001 6.30996C6.06001 6.88996 6.24001 7.35996 6.60001 7.71996C6.96 8.07996 7.43 8.38996 8.01 8.64996C8.61 8.90996 9.26001 9.15996 9.96001 9.39996C10.68 9.63996 11.39 9.90996 12.09 10.21C12.81 10.51 13.46 10.9 14.04 11.38C14.64 11.86 15.12 12.48 15.48 13.24C15.84 13.98 16.02 14.9 16.02 16C16.02 17.96 15.33 19.5 13.95 20.62C12.57 21.74 10.68 22.3 8.28001 22.3Z" fill="white"/>
</svg>
